<mxfile host="65bd71144e">
    <diagram id="C5RBs43oDa-KdzZeNtuy" name="Page-1">
        <mxGraphModel dx="1921" dy="251" grid="1" gridSize="10" guides="1" tooltips="1" connect="1" arrows="1" fold="1" page="1" pageScale="1" pageWidth="827" pageHeight="1169" math="0" shadow="1">
            <root>
                <mxCell id="WIyWlLk6GJQsqaUBKTNV-0"/>
                <mxCell id="WIyWlLk6GJQsqaUBKTNV-1" parent="WIyWlLk6GJQsqaUBKTNV-0"/>
                <mxCell id="XTA-F8nqBlN3J9KMVAk3-13" value="" style="rounded=0;whiteSpace=wrap;html=1;fontSize=12;fontColor=#000000;dashed=1;strokeColor=#0000FF;" parent="WIyWlLk6GJQsqaUBKTNV-1" vertex="1">
                    <mxGeometry x="146" y="377.5" width="150" height="132.5" as="geometry"/>
                </mxCell>
                <mxCell id="WIyWlLk6GJQsqaUBKTNV-2" value="" style="rounded=0;html=1;jettySize=auto;orthogonalLoop=1;fontSize=11;endArrow=classic;endFill=1;endSize=6;strokeWidth=1;shadow=0;labelBackgroundColor=none;edgeStyle=orthogonalEdgeStyle;exitX=0.5;exitY=1;exitDx=0;exitDy=0;entryX=0.5;entryY=0;entryDx=0;entryDy=0;" parent="WIyWlLk6GJQsqaUBKTNV-1" source="bs_Tf3QihvWE65q_Xctn-0" target="bs_Tf3QihvWE65q_Xctn-13" edge="1">
                    <mxGeometry relative="1" as="geometry">
                        <mxPoint x="220" y="165" as="sourcePoint"/>
                        <mxPoint x="220" y="130" as="targetPoint"/>
                    </mxGeometry>
                </mxCell>
                <mxCell id="bs_Tf3QihvWE65q_Xctn-0" value="Start" style="rounded=1;whiteSpace=wrap;html=1;fontSize=12;glass=0;strokeWidth=1;shadow=0;strokeColor=#FF0000;" parent="WIyWlLk6GJQsqaUBKTNV-1" vertex="1">
                    <mxGeometry x="160" y="48" width="120" height="40" as="geometry"/>
                </mxCell>
                <mxCell id="bs_Tf3QihvWE65q_Xctn-1" value="&lt;b&gt;Блок схема алгоритма задачи&lt;/b&gt;" style="text;html=1;align=center;verticalAlign=middle;resizable=0;points=[];autosize=1;strokeColor=none;fillColor=none;fontSize=17;" parent="WIyWlLk6GJQsqaUBKTNV-1" vertex="1">
                    <mxGeometry x="95" y="10" width="270" height="30" as="geometry"/>
                </mxCell>
                <mxCell id="rc0nz9SV06yo6RX02RPc-4" style="edgeStyle=orthogonalEdgeStyle;rounded=0;orthogonalLoop=1;jettySize=auto;html=0;exitX=0.5;exitY=1;exitDx=0;exitDy=0;labelBackgroundColor=default;entryX=0.5;entryY=0;entryDx=0;entryDy=0;" parent="WIyWlLk6GJQsqaUBKTNV-1" source="bs_Tf3QihvWE65q_Xctn-3" target="XTA-F8nqBlN3J9KMVAk3-2" edge="1">
                    <mxGeometry relative="1" as="geometry">
                        <mxPoint x="220" y="290" as="targetPoint"/>
                    </mxGeometry>
                </mxCell>
                <mxCell id="bs_Tf3QihvWE65q_Xctn-3" value="string[] strs=new string[n]&lt;br&gt;string[] strs2=new string[strs.Length]" style="rounded=0;whiteSpace=wrap;html=1;" parent="WIyWlLk6GJQsqaUBKTNV-1" vertex="1">
                    <mxGeometry x="110" y="227.5" width="220" height="41" as="geometry"/>
                </mxCell>
                <mxCell id="bs_Tf3QihvWE65q_Xctn-9" value="Yes" style="edgeStyle=orthogonalEdgeStyle;rounded=0;orthogonalLoop=1;jettySize=auto;html=1;exitX=0.5;exitY=1;exitDx=0;exitDy=0;endArrow=classic;endFill=1;endSize=6;entryX=0.5;entryY=0;entryDx=0;entryDy=0;" parent="WIyWlLk6GJQsqaUBKTNV-1" source="bs_Tf3QihvWE65q_Xctn-7" target="bs_Tf3QihvWE65q_Xctn-3" edge="1">
                    <mxGeometry relative="1" as="geometry">
                        <mxPoint x="220" y="266" as="targetPoint"/>
                    </mxGeometry>
                </mxCell>
                <mxCell id="bs_Tf3QihvWE65q_Xctn-11" style="edgeStyle=orthogonalEdgeStyle;rounded=0;orthogonalLoop=1;jettySize=auto;html=1;exitX=1;exitY=0.5;exitDx=0;exitDy=0;endArrow=classic;endFill=1;endSize=6;entryX=0;entryY=0.5;entryDx=0;entryDy=0;" parent="WIyWlLk6GJQsqaUBKTNV-1" source="bs_Tf3QihvWE65q_Xctn-7" target="bs_Tf3QihvWE65q_Xctn-10" edge="1">
                    <mxGeometry relative="1" as="geometry">
                        <mxPoint x="330" y="205.5" as="targetPoint"/>
                    </mxGeometry>
                </mxCell>
                <mxCell id="bs_Tf3QihvWE65q_Xctn-12" value="No" style="edgeLabel;html=1;align=center;verticalAlign=middle;resizable=0;points=[];" parent="bs_Tf3QihvWE65q_Xctn-11" vertex="1" connectable="0">
                    <mxGeometry x="-0.3202" y="-3" relative="1" as="geometry">
                        <mxPoint y="-4" as="offset"/>
                    </mxGeometry>
                </mxCell>
                <mxCell id="bs_Tf3QihvWE65q_Xctn-7" value="while !Int &lt;br&gt;TryParse" style="rhombus;whiteSpace=wrap;html=1;" parent="WIyWlLk6GJQsqaUBKTNV-1" vertex="1">
                    <mxGeometry x="160" y="150" width="120" height="50" as="geometry"/>
                </mxCell>
                <mxCell id="bs_Tf3QihvWE65q_Xctn-10" value="input error" style="shape=document;whiteSpace=wrap;html=1;boundedLbl=1;" parent="WIyWlLk6GJQsqaUBKTNV-1" vertex="1">
                    <mxGeometry x="320" y="136" width="70" height="34" as="geometry"/>
                </mxCell>
                <mxCell id="bs_Tf3QihvWE65q_Xctn-16" style="edgeStyle=orthogonalEdgeStyle;rounded=0;orthogonalLoop=1;jettySize=auto;html=1;exitX=0.5;exitY=1;exitDx=0;exitDy=0;endArrow=classic;endFill=1;endSize=6;" parent="WIyWlLk6GJQsqaUBKTNV-1" source="bs_Tf3QihvWE65q_Xctn-13" target="bs_Tf3QihvWE65q_Xctn-7" edge="1">
                    <mxGeometry relative="1" as="geometry">
                        <mxPoint x="220" y="180" as="targetPoint"/>
                    </mxGeometry>
                </mxCell>
                <mxCell id="bs_Tf3QihvWE65q_Xctn-13" value="int n" style="shape=parallelogram;perimeter=parallelogramPerimeter;whiteSpace=wrap;html=1;fixedSize=1;" parent="WIyWlLk6GJQsqaUBKTNV-1" vertex="1">
                    <mxGeometry x="160" y="111" width="120" height="20" as="geometry"/>
                </mxCell>
                <mxCell id="bs_Tf3QihvWE65q_Xctn-17" value="Finish" style="rounded=1;whiteSpace=wrap;html=1;fontSize=12;glass=0;strokeWidth=1;shadow=0;strokeColor=#FF0000;" parent="WIyWlLk6GJQsqaUBKTNV-1" vertex="1">
                    <mxGeometry x="158" y="529" width="120" height="40" as="geometry"/>
                </mxCell>
                <mxCell id="rc0nz9SV06yo6RX02RPc-1" value="" style="endArrow=classic;html=1;rounded=0;exitX=0.409;exitY=-0.015;exitDx=0;exitDy=0;exitPerimeter=0;" parent="WIyWlLk6GJQsqaUBKTNV-1" source="bs_Tf3QihvWE65q_Xctn-10" edge="1">
                    <mxGeometry width="50" height="50" relative="1" as="geometry">
                        <mxPoint x="364" y="135" as="sourcePoint"/>
                        <mxPoint x="220" y="100" as="targetPoint"/>
                        <Array as="points">
                            <mxPoint x="349" y="100"/>
                        </Array>
                    </mxGeometry>
                </mxCell>
                <mxCell id="rc0nz9SV06yo6RX02RPc-16" style="edgeStyle=orthogonalEdgeStyle;rounded=0;orthogonalLoop=1;jettySize=auto;html=0;exitX=0.5;exitY=1;exitDx=0;exitDy=0;entryX=0.5;entryY=0;entryDx=0;entryDy=0;labelBackgroundColor=default;" parent="WIyWlLk6GJQsqaUBKTNV-1" source="XTA-F8nqBlN3J9KMVAk3-7" target="XTA-F8nqBlN3J9KMVAk3-9" edge="1">
                    <mxGeometry relative="1" as="geometry">
                        <mxPoint x="70" y="655" as="sourcePoint"/>
                        <mxPoint x="220" y="621" as="targetPoint"/>
                    </mxGeometry>
                </mxCell>
                <mxCell id="rc0nz9SV06yo6RX02RPc-31" value="" style="edgeStyle=orthogonalEdgeStyle;rounded=0;orthogonalLoop=1;jettySize=auto;html=0;labelBackgroundColor=default;exitX=0.465;exitY=0.86;exitDx=0;exitDy=0;exitPerimeter=0;" parent="WIyWlLk6GJQsqaUBKTNV-1" source="XTA-F8nqBlN3J9KMVAk3-9" target="bs_Tf3QihvWE65q_Xctn-17" edge="1">
                    <mxGeometry relative="1" as="geometry">
                        <mxPoint x="350" y="770" as="sourcePoint"/>
                    </mxGeometry>
                </mxCell>
                <mxCell id="rc0nz9SV06yo6RX02RPc-33" value="- формируем массив с длиной&amp;nbsp;&amp;nbsp;строк не более 3-х символов" style="text;html=1;strokeColor=none;fillColor=none;align=center;verticalAlign=middle;whiteSpace=wrap;rounded=0;fontColor=#0000FF;fontStyle=1" parent="WIyWlLk6GJQsqaUBKTNV-1" vertex="1">
                    <mxGeometry x="296" y="400" width="310" height="30" as="geometry"/>
                </mxCell>
                <mxCell id="rc0nz9SV06yo6RX02RPc-36" value="&lt;font color=&quot;#0000ff&quot;&gt;пользовательский ввод&lt;br&gt;&amp;nbsp;количества строк масива -&lt;br&gt;(ввод цифры)&lt;br&gt;&lt;/font&gt;" style="text;html=1;align=center;verticalAlign=middle;resizable=0;points=[];autosize=1;strokeColor=none;fillColor=none;fontColor=#FF3333;fontStyle=1" parent="WIyWlLk6GJQsqaUBKTNV-1" vertex="1">
                    <mxGeometry x="-13" y="92" width="190" height="60" as="geometry"/>
                </mxCell>
                <mxCell id="rc0nz9SV06yo6RX02RPc-37" value="&lt;font color=&quot;#0000ff&quot;&gt;- возврат в случае ошибки&lt;/font&gt;" style="text;html=1;align=center;verticalAlign=middle;resizable=0;points=[];autosize=1;strokeColor=none;fillColor=none;fontColor=#FF3333;fontStyle=1" parent="WIyWlLk6GJQsqaUBKTNV-1" vertex="1">
                    <mxGeometry x="390" y="135" width="180" height="30" as="geometry"/>
                </mxCell>
                <mxCell id="rc0nz9SV06yo6RX02RPc-38" value="&lt;font color=&quot;#0000ff&quot;&gt;- выделили память под 2 массива&lt;br&gt;n -&amp;gt; количество строк&lt;br&gt;&lt;/font&gt;" style="text;html=1;align=center;verticalAlign=middle;resizable=0;points=[];autosize=1;strokeColor=none;fillColor=none;fontColor=#FF3333;fontStyle=1" parent="WIyWlLk6GJQsqaUBKTNV-1" vertex="1">
                    <mxGeometry x="330" y="235" width="230" height="40" as="geometry"/>
                </mxCell>
                <mxCell id="XTA-F8nqBlN3J9KMVAk3-0" value="&lt;font color=&quot;#0000ff&quot;&gt;проверка ввода цифры -&lt;br&gt;&lt;/font&gt;" style="text;html=1;align=center;verticalAlign=middle;resizable=0;points=[];autosize=1;strokeColor=none;fillColor=none;fontColor=#FF3333;fontStyle=1" parent="WIyWlLk6GJQsqaUBKTNV-1" vertex="1">
                    <mxGeometry x="-4" y="159" width="170" height="30" as="geometry"/>
                </mxCell>
                <mxCell id="XTA-F8nqBlN3J9KMVAk3-2" value="InputArray" style="shape=parallelogram;perimeter=parallelogramPerimeter;whiteSpace=wrap;html=1;fixedSize=1;" parent="WIyWlLk6GJQsqaUBKTNV-1" vertex="1">
                    <mxGeometry x="160" y="289" width="120" height="20" as="geometry"/>
                </mxCell>
                <mxCell id="XTA-F8nqBlN3J9KMVAk3-3" value="&lt;font color=&quot;#0000ff&quot;&gt;ввод строк с клавиатуры -&lt;br&gt;&lt;/font&gt;" style="text;html=1;align=center;verticalAlign=middle;resizable=0;points=[];autosize=1;strokeColor=none;fillColor=none;fontColor=#FF3333;fontStyle=1" parent="WIyWlLk6GJQsqaUBKTNV-1" vertex="1">
                    <mxGeometry x="-8" y="283" width="180" height="30" as="geometry"/>
                </mxCell>
                <mxCell id="XTA-F8nqBlN3J9KMVAk3-4" value="PrintInputArray" style="shape=document;whiteSpace=wrap;html=1;boundedLbl=1;" parent="WIyWlLk6GJQsqaUBKTNV-1" vertex="1">
                    <mxGeometry x="172.5" y="331" width="95" height="34" as="geometry"/>
                </mxCell>
                <mxCell id="XTA-F8nqBlN3J9KMVAk3-5" style="edgeStyle=orthogonalEdgeStyle;rounded=0;orthogonalLoop=1;jettySize=auto;html=0;exitX=0.5;exitY=1;exitDx=0;exitDy=0;labelBackgroundColor=default;entryX=0.5;entryY=0;entryDx=0;entryDy=0;" parent="WIyWlLk6GJQsqaUBKTNV-1" source="XTA-F8nqBlN3J9KMVAk3-2" target="XTA-F8nqBlN3J9KMVAk3-4" edge="1">
                    <mxGeometry relative="1" as="geometry">
                        <mxPoint x="300" y="300" as="sourcePoint"/>
                        <mxPoint x="310" y="350" as="targetPoint"/>
                    </mxGeometry>
                </mxCell>
                <mxCell id="XTA-F8nqBlN3J9KMVAk3-6" value="&lt;font color=&quot;#0000ff&quot;&gt;- вывод на печать начального массива&amp;nbsp;&lt;br&gt;&lt;/font&gt;" style="text;html=1;align=center;verticalAlign=middle;resizable=0;points=[];autosize=1;strokeColor=none;fillColor=none;fontColor=#FF3333;fontStyle=1" parent="WIyWlLk6GJQsqaUBKTNV-1" vertex="1">
                    <mxGeometry x="264" y="329" width="260" height="30" as="geometry"/>
                </mxCell>
                <mxCell id="XTA-F8nqBlN3J9KMVAk3-7" value="NewArray" style="rounded=0;whiteSpace=wrap;html=1;" parent="WIyWlLk6GJQsqaUBKTNV-1" vertex="1">
                    <mxGeometry x="160" y="390" width="120" height="40" as="geometry"/>
                </mxCell>
                <mxCell id="XTA-F8nqBlN3J9KMVAk3-8" style="edgeStyle=orthogonalEdgeStyle;rounded=0;orthogonalLoop=1;jettySize=auto;html=0;exitX=0.463;exitY=0.887;exitDx=0;exitDy=0;entryX=0.5;entryY=0;entryDx=0;entryDy=0;labelBackgroundColor=default;exitPerimeter=0;" parent="WIyWlLk6GJQsqaUBKTNV-1" source="XTA-F8nqBlN3J9KMVAk3-4" target="XTA-F8nqBlN3J9KMVAk3-7" edge="1">
                    <mxGeometry relative="1" as="geometry">
                        <mxPoint x="350" y="370" as="sourcePoint"/>
                        <mxPoint x="350" y="404" as="targetPoint"/>
                    </mxGeometry>
                </mxCell>
                <mxCell id="XTA-F8nqBlN3J9KMVAk3-9" value="PrintNewArray" style="shape=document;whiteSpace=wrap;html=1;boundedLbl=1;" parent="WIyWlLk6GJQsqaUBKTNV-1" vertex="1">
                    <mxGeometry x="173.5" y="462" width="95" height="34" as="geometry"/>
                </mxCell>
                <mxCell id="XTA-F8nqBlN3J9KMVAk3-10" value="&lt;font color=&quot;#0000ff&quot;&gt;вывод на печать массива, &lt;br&gt;- удовлетворяющего условию&amp;nbsp;&lt;br&gt;(если это возможнго)&lt;br&gt;&lt;/font&gt;" style="text;html=1;align=center;verticalAlign=middle;resizable=0;points=[];autosize=1;strokeColor=none;fillColor=none;fontColor=#FF3333;fontStyle=1" parent="WIyWlLk6GJQsqaUBKTNV-1" vertex="1">
                    <mxGeometry x="291.5" y="446" width="210" height="60" as="geometry"/>
                </mxCell>
                <mxCell id="XTA-F8nqBlN3J9KMVAk3-11" value="&lt;div style=&quot;text-align: left;&quot;&gt;&lt;span style=&quot;color: rgb(0, 0, 0); background-color: initial;&quot;&gt;&lt;u&gt;Задача&lt;/u&gt;:&lt;/span&gt;&lt;/div&gt;&lt;font color=&quot;#000000&quot;&gt;&lt;div style=&quot;text-align: left;&quot;&gt;&lt;span style=&quot;background-color: initial;&quot;&gt;Написать программу, которая из введенного пользователем массива строк&amp;nbsp;&lt;/span&gt;&lt;/div&gt;&lt;div style=&quot;text-align: left;&quot;&gt;&lt;span style=&quot;background-color: initial;&quot;&gt;формирует&amp;nbsp;&lt;/span&gt;&lt;span style=&quot;background-color: initial;&quot;&gt;новый массив из строк, длина которых меньше, либо&lt;/span&gt;&lt;/div&gt;&lt;div style=&quot;text-align: left;&quot;&gt;&lt;span style=&quot;background-color: initial;&quot;&gt;равна&amp;nbsp;&lt;/span&gt;&lt;span style=&quot;background-color: initial;&quot;&gt;трём символам.&amp;nbsp;&lt;/span&gt;&lt;span style=&quot;background-color: initial;&quot;&gt;Первоначальный массив вводим с клавиатуры.&lt;/span&gt;&lt;/div&gt;&lt;div style=&quot;text-align: left;&quot;&gt;&lt;span style=&quot;background-color: initial;&quot;&gt;При&amp;nbsp;&lt;/span&gt;&lt;span style=&quot;background-color: initial;&quot;&gt;решении задачи&amp;nbsp;&lt;/span&gt;&lt;span style=&quot;background-color: initial;&quot;&gt;коллекциями пользоваться не рекомендуется.&lt;/span&gt;&lt;/div&gt;&lt;/font&gt;" style="text;html=1;align=center;verticalAlign=middle;resizable=0;points=[];autosize=1;strokeColor=none;fillColor=none;fontColor=#FF3333;fontStyle=1" parent="WIyWlLk6GJQsqaUBKTNV-1" vertex="1">
                    <mxGeometry x="355" y="26" width="480" height="90" as="geometry"/>
                </mxCell>
            </root>
        </mxGraphModel>
    </diagram>
</mxfile>